<?xml version="1.0" encoding="utf-8" standalone="no"?>
<!DOCTYPE svg PUBLIC "-//W3C//DTD SVG 1.1//EN"
  "http://www.w3.org/Graphics/SVG/1.1/DTD/svg11.dtd">
<!-- Created with matplotlib (http://matplotlib.org/) -->
<svg height="576pt" version="1.1" viewBox="0 0 360 576" width="360pt" xmlns="http://www.w3.org/2000/svg" xmlns:xlink="http://www.w3.org/1999/xlink">
 <defs>
  <style type="text/css">
*{stroke-linecap:butt;stroke-linejoin:round;}
  </style>
 </defs>
 <g id="figure_1">
  <g id="patch_1">
   <path d="
M0 576
L360 576
L360 0
L0 0
z
" style="fill:#ffffff;"/>
  </g>
  <g id="axes_1">
   <g id="patch_2">
    <path d="
M52.2994 530.786
L338.638 530.786
L338.638 18.7669
L52.2994 18.7669
z
" style="fill:#ffffff;"/>
   </g>
   <g id="line2d_1">
    <path clip-path="url(#p65bd822ae2)" d="
M52.2994 290.237
L65.486 293.115
L78.6727 296.813
L91.8593 301.239
L105.046 306.254
L118.233 311.667
L131.419 317.227
L144.606 322.617
L157.793 327.447
L170.979 331.244
L184.166 333.448
L197.353 333.399
L210.539 330.33
L223.726 323.36
L236.913 311.481
L250.099 293.549
L263.286 268.275
L276.472 234.214
L289.659 189.749
L302.846 133.088" style="fill:none;stroke:#000000;stroke-linecap:square;"/>
   </g>
   <g id="line2d_2">
    <defs>
     <path d="
M0 3
C0.795609 3 1.55874 2.6839 2.12132 2.12132
C2.6839 1.55874 3 0.795609 3 0
C3 -0.795609 2.6839 -1.55874 2.12132 -2.12132
C1.55874 -2.6839 0.795609 -3 0 -3
C-0.795609 -3 -1.55874 -2.6839 -2.12132 -2.12132
C-2.6839 -1.55874 -3 -0.795609 -3 0
C-3 0.795609 -2.6839 1.55874 -2.12132 2.12132
C-1.55874 2.6839 -0.795609 3 0 3
z
" id="m231f9b0f49" style="stroke:#000000;stroke-width:0.5;"/>
    </defs>
    <g clip-path="url(#p65bd822ae2)">
     <use style="fill:#ff0000;stroke:#000000;stroke-width:0.5;" x="190.669958582" xlink:href="#m231f9b0f49" y="333.750245942"/>
    </g>
   </g>
   <g id="line2d_3">
    <path clip-path="url(#p65bd822ae2)" d="
M52.2994 367.447
L65.486 378.353
L78.6727 390.4
L91.8593 403.496
L105.046 417.502
L118.233 432.227
L131.419 447.42
L144.606 462.764
L157.793 477.868
L170.979 492.262
L184.166 505.382
L197.353 516.57
L210.539 525.061
L223.726 529.97
L236.913 530.292
L250.099 524.883
L263.286 512.452
L276.472 491.554
L289.659 460.574
L302.846 417.719" style="fill:none;stroke:#0000ff;stroke-linecap:square;"/>
   </g>
   <g id="line2d_4">
    <path clip-path="url(#p65bd822ae2)" d="
M52.2994 501.225
L65.486 496.708
L78.6727 491.87
L91.8593 486.711
L105.046 481.231
L118.233 475.43
L131.419 469.308
L144.606 462.865
L157.793 456.101
L170.979 449.016
L184.166 441.611
L197.353 433.884
L210.539 425.836
L223.726 417.467
L236.913 408.777
L250.099 399.766
L263.286 390.434
L276.472 380.781
L289.659 370.807
L302.846 360.512" style="fill:none;stroke:#ffa500;stroke-linecap:square;"/>
   </g>
   <g id="line2d_5">
    <path clip-path="url(#p65bd822ae2)" d="
M52.2994 483.137
L65.486 479.627
L78.6727 476.116
L91.8593 472.605
L105.046 469.094
L118.233 465.583
L131.419 462.072
L144.606 458.561
L157.793 455.05
L170.979 451.539
L184.166 448.028
L197.353 444.517
L210.539 441.006
L223.726 437.495
L236.913 433.984
L250.099 430.473
L263.286 426.962
L276.472 423.451
L289.659 419.94
L302.846 416.429" style="fill:none;stroke:#008000;stroke-linecap:square;"/>
   </g>
   <g id="line2d_6">
    <path clip-path="url(#p65bd822ae2)" d="
M52.2994 367.388
L65.486 378.282
L78.6727 390.315
L91.8593 403.395
L105.046 417.384
L118.233 432.091
L131.419 447.266
L144.606 462.591
L157.793 477.676
L170.979 492.051
L184.166 505.154
L197.353 516.327
L210.539 524.804
L223.726 529.704
L236.913 530.021
L250.099 524.612
L263.286 512.189
L276.472 491.308
L289.659 460.355
L302.846 417.538" style="fill:none;opacity:0.8;stroke:#0000ff;stroke-dasharray:1.000000,3.000000;stroke-dashoffset:0.0;stroke-width:2;"/>
    <defs>
     <path d="
M0 3
C0.795609 3 1.55874 2.6839 2.12132 2.12132
C2.6839 1.55874 3 0.795609 3 0
C3 -0.795609 2.6839 -1.55874 2.12132 -2.12132
C1.55874 -2.6839 0.795609 -3 0 -3
C-0.795609 -3 -1.55874 -2.6839 -2.12132 -2.12132
C-2.6839 -1.55874 -3 -0.795609 -3 0
C-3 0.795609 -2.6839 1.55874 -2.12132 2.12132
C-1.55874 2.6839 -0.795609 3 0 3
z
" id="mef69609f5b" style="stroke:#000000;stroke-width:0.5;"/>
    </defs>
    <g clip-path="url(#p65bd822ae2)">
     <use style="fill:#0000ff;opacity:0.8;stroke:#000000;stroke-width:0.5;" x="52.299375" xlink:href="#mef69609f5b" y="367.38822577"/>
     <use style="fill:#0000ff;opacity:0.8;stroke:#000000;stroke-width:0.5;" x="65.4860279605" xlink:href="#mef69609f5b" y="378.281938434"/>
     <use style="fill:#0000ff;opacity:0.8;stroke:#000000;stroke-width:0.5;" x="78.6726809211" xlink:href="#mef69609f5b" y="390.314778782"/>
     <use style="fill:#0000ff;opacity:0.8;stroke:#000000;stroke-width:0.5;" x="91.8593338816" xlink:href="#mef69609f5b" y="403.394958853"/>
     <use style="fill:#0000ff;opacity:0.8;stroke:#000000;stroke-width:0.5;" x="105.045986842" xlink:href="#mef69609f5b" y="417.384106777"/>
     <use style="fill:#0000ff;opacity:0.8;stroke:#000000;stroke-width:0.5;" x="118.232639803" xlink:href="#mef69609f5b" y="432.09109988"/>
     <use style="fill:#0000ff;opacity:0.8;stroke:#000000;stroke-width:0.5;" x="131.419292763" xlink:href="#mef69609f5b" y="447.265514065"/>
     <use style="fill:#0000ff;opacity:0.8;stroke:#000000;stroke-width:0.5;" x="144.605945724" xlink:href="#mef69609f5b" y="462.590689479"/>
     <use style="fill:#0000ff;opacity:0.8;stroke:#000000;stroke-width:0.5;" x="157.792598684" xlink:href="#mef69609f5b" y="477.676412454"/>
     <use style="fill:#0000ff;opacity:0.8;stroke:#000000;stroke-width:0.5;" x="170.979251645" xlink:href="#mef69609f5b" y="492.051213741"/>
     <use style="fill:#0000ff;opacity:0.8;stroke:#000000;stroke-width:0.5;" x="184.165904605" xlink:href="#mef69609f5b" y="505.154283021"/>
     <use style="fill:#0000ff;opacity:0.8;stroke:#000000;stroke-width:0.5;" x="197.352557566" xlink:href="#mef69609f5b" y="516.326999689"/>
     <use style="fill:#0000ff;opacity:0.8;stroke:#000000;stroke-width:0.5;" x="210.539210526" xlink:href="#mef69609f5b" y="524.804079937"/>
     <use style="fill:#0000ff;opacity:0.8;stroke:#000000;stroke-width:0.5;" x="223.725863487" xlink:href="#mef69609f5b" y="529.704340106"/>
     <use style="fill:#0000ff;opacity:0.8;stroke:#000000;stroke-width:0.5;" x="236.912516447" xlink:href="#mef69609f5b" y="530.021076322"/>
     <use style="fill:#0000ff;opacity:0.8;stroke:#000000;stroke-width:0.5;" x="250.099169408" xlink:href="#mef69609f5b" y="524.612060418"/>
     <use style="fill:#0000ff;opacity:0.8;stroke:#000000;stroke-width:0.5;" x="263.285822368" xlink:href="#mef69609f5b" y="512.189152134"/>
     <use style="fill:#0000ff;opacity:0.8;stroke:#000000;stroke-width:0.5;" x="276.472475329" xlink:href="#mef69609f5b" y="491.307527602"/>
     <use style="fill:#0000ff;opacity:0.8;stroke:#000000;stroke-width:0.5;" x="289.659128289" xlink:href="#mef69609f5b" y="460.354524107"/>
     <use style="fill:#0000ff;opacity:0.8;stroke:#000000;stroke-width:0.5;" x="302.84578125" xlink:href="#mef69609f5b" y="417.538101139"/>
    </g>
   </g>
   <g id="line2d_7">
    <path clip-path="url(#p65bd822ae2)" d="
M52.2994 481.738
L65.486 478.123
L78.6727 474.509
L91.8593 470.895
L105.046 467.281
L118.233 463.667
L131.419 460.053
L144.606 456.439
L157.793 452.825
L170.979 449.211
L184.166 445.596
L197.353 441.982
L210.539 438.368
L223.726 434.754
L236.913 431.14
L250.099 427.526
L263.286 423.912
L276.472 420.298
L289.659 416.684
L302.846 413.069" style="fill:none;opacity:0.8;stroke:#008000;stroke-dasharray:1.000000,3.000000;stroke-dashoffset:0.0;stroke-width:2;"/>
    <defs>
     <path d="
M0 3
C0.795609 3 1.55874 2.6839 2.12132 2.12132
C2.6839 1.55874 3 0.795609 3 0
C3 -0.795609 2.6839 -1.55874 2.12132 -2.12132
C1.55874 -2.6839 0.795609 -3 0 -3
C-0.795609 -3 -1.55874 -2.6839 -2.12132 -2.12132
C-2.6839 -1.55874 -3 -0.795609 -3 0
C-3 0.795609 -2.6839 1.55874 -2.12132 2.12132
C-1.55874 2.6839 -0.795609 3 0 3
z
" id="m76b920a409" style="stroke:#000000;stroke-width:0.5;"/>
    </defs>
    <g clip-path="url(#p65bd822ae2)">
     <use style="fill:#008000;opacity:0.8;stroke:#000000;stroke-width:0.5;" x="52.299375" xlink:href="#m76b920a409" y="481.737566424"/>
     <use style="fill:#008000;opacity:0.8;stroke:#000000;stroke-width:0.5;" x="65.4860279605" xlink:href="#m76b920a409" y="478.123452897"/>
     <use style="fill:#008000;opacity:0.8;stroke:#000000;stroke-width:0.5;" x="78.6726809211" xlink:href="#m76b920a409" y="474.509339371"/>
     <use style="fill:#008000;opacity:0.8;stroke:#000000;stroke-width:0.5;" x="91.8593338816" xlink:href="#m76b920a409" y="470.895225844"/>
     <use style="fill:#008000;opacity:0.8;stroke:#000000;stroke-width:0.5;" x="105.045986842" xlink:href="#m76b920a409" y="467.281112318"/>
     <use style="fill:#008000;opacity:0.8;stroke:#000000;stroke-width:0.5;" x="118.232639803" xlink:href="#m76b920a409" y="463.666998791"/>
     <use style="fill:#008000;opacity:0.8;stroke:#000000;stroke-width:0.5;" x="131.419292763" xlink:href="#m76b920a409" y="460.052885264"/>
     <use style="fill:#008000;opacity:0.8;stroke:#000000;stroke-width:0.5;" x="144.605945724" xlink:href="#m76b920a409" y="456.438771738"/>
     <use style="fill:#008000;opacity:0.8;stroke:#000000;stroke-width:0.5;" x="157.792598684" xlink:href="#m76b920a409" y="452.824658211"/>
     <use style="fill:#008000;opacity:0.8;stroke:#000000;stroke-width:0.5;" x="170.979251645" xlink:href="#m76b920a409" y="449.210544684"/>
     <use style="fill:#008000;opacity:0.8;stroke:#000000;stroke-width:0.5;" x="184.165904605" xlink:href="#m76b920a409" y="445.596431158"/>
     <use style="fill:#008000;opacity:0.8;stroke:#000000;stroke-width:0.5;" x="197.352557566" xlink:href="#m76b920a409" y="441.982317631"/>
     <use style="fill:#008000;opacity:0.8;stroke:#000000;stroke-width:0.5;" x="210.539210526" xlink:href="#m76b920a409" y="438.368204104"/>
     <use style="fill:#008000;opacity:0.8;stroke:#000000;stroke-width:0.5;" x="223.725863487" xlink:href="#m76b920a409" y="434.754090578"/>
     <use style="fill:#008000;opacity:0.8;stroke:#000000;stroke-width:0.5;" x="236.912516447" xlink:href="#m76b920a409" y="431.139977051"/>
     <use style="fill:#008000;opacity:0.8;stroke:#000000;stroke-width:0.5;" x="250.099169408" xlink:href="#m76b920a409" y="427.525863524"/>
     <use style="fill:#008000;opacity:0.8;stroke:#000000;stroke-width:0.5;" x="263.285822368" xlink:href="#m76b920a409" y="423.911749998"/>
     <use style="fill:#008000;opacity:0.8;stroke:#000000;stroke-width:0.5;" x="276.472475329" xlink:href="#m76b920a409" y="420.297636471"/>
     <use style="fill:#008000;opacity:0.8;stroke:#000000;stroke-width:0.5;" x="289.659128289" xlink:href="#m76b920a409" y="416.683522945"/>
     <use style="fill:#008000;opacity:0.8;stroke:#000000;stroke-width:0.5;" x="302.84578125" xlink:href="#m76b920a409" y="413.069409418"/>
    </g>
   </g>
   <g id="line2d_8">
    <path clip-path="url(#p65bd822ae2)" d="
M52.2994 500.95
L65.486 496.391
L78.6727 491.508
L91.8593 486.301
L105.046 480.77
L118.233 474.915
L131.419 468.736
L144.606 462.234
L157.793 455.407
L170.979 448.256
L184.166 440.781
L197.353 432.982
L210.539 424.86
L223.726 416.413
L236.913 407.642
L250.099 398.547
L263.286 389.129
L276.472 379.386
L289.659 369.319
L302.846 358.929" style="fill:none;stroke:#ffa500;stroke-dasharray:1.000000,3.000000;stroke-dashoffset:0.0;"/>
    <defs>
     <path d="
M0 3
C0.795609 3 1.55874 2.6839 2.12132 2.12132
C2.6839 1.55874 3 0.795609 3 0
C3 -0.795609 2.6839 -1.55874 2.12132 -2.12132
C1.55874 -2.6839 0.795609 -3 0 -3
C-0.795609 -3 -1.55874 -2.6839 -2.12132 -2.12132
C-2.6839 -1.55874 -3 -0.795609 -3 0
C-3 0.795609 -2.6839 1.55874 -2.12132 2.12132
C-1.55874 2.6839 -0.795609 3 0 3
z
" id="m7826282e09" style="stroke:#000000;stroke-width:0.5;"/>
    </defs>
    <g clip-path="url(#p65bd822ae2)">
     <use style="fill:#ffa500;stroke:#000000;stroke-width:0.5;" x="52.299375" xlink:href="#m7826282e09" y="500.949847199"/>
     <use style="fill:#ffa500;stroke:#000000;stroke-width:0.5;" x="65.4860279605" xlink:href="#m7826282e09" y="496.390910971"/>
     <use style="fill:#ffa500;stroke:#000000;stroke-width:0.5;" x="78.6726809211" xlink:href="#m7826282e09" y="491.507989426"/>
     <use style="fill:#ffa500;stroke:#000000;stroke-width:0.5;" x="91.8593338816" xlink:href="#m7826282e09" y="486.301082566"/>
     <use style="fill:#ffa500;stroke:#000000;stroke-width:0.5;" x="105.045986842" xlink:href="#m7826282e09" y="480.770190391"/>
     <use style="fill:#ffa500;stroke:#000000;stroke-width:0.5;" x="118.232639803" xlink:href="#m7826282e09" y="474.915312899"/>
     <use style="fill:#ffa500;stroke:#000000;stroke-width:0.5;" x="131.419292763" xlink:href="#m7826282e09" y="468.736450092"/>
     <use style="fill:#ffa500;stroke:#000000;stroke-width:0.5;" x="144.605945724" xlink:href="#m7826282e09" y="462.233601969"/>
     <use style="fill:#ffa500;stroke:#000000;stroke-width:0.5;" x="157.792598684" xlink:href="#m7826282e09" y="455.406768531"/>
     <use style="fill:#ffa500;stroke:#000000;stroke-width:0.5;" x="170.979251645" xlink:href="#m7826282e09" y="448.255949776"/>
     <use style="fill:#ffa500;stroke:#000000;stroke-width:0.5;" x="184.165904605" xlink:href="#m7826282e09" y="440.781145706"/>
     <use style="fill:#ffa500;stroke:#000000;stroke-width:0.5;" x="197.352557566" xlink:href="#m7826282e09" y="432.98235632"/>
     <use style="fill:#ffa500;stroke:#000000;stroke-width:0.5;" x="210.539210526" xlink:href="#m7826282e09" y="424.859581619"/>
     <use style="fill:#ffa500;stroke:#000000;stroke-width:0.5;" x="223.725863487" xlink:href="#m7826282e09" y="416.412821601"/>
     <use style="fill:#ffa500;stroke:#000000;stroke-width:0.5;" x="236.912516447" xlink:href="#m7826282e09" y="407.642076268"/>
     <use style="fill:#ffa500;stroke:#000000;stroke-width:0.5;" x="250.099169408" xlink:href="#m7826282e09" y="398.54734562"/>
     <use style="fill:#ffa500;stroke:#000000;stroke-width:0.5;" x="263.285822368" xlink:href="#m7826282e09" y="389.128629655"/>
     <use style="fill:#ffa500;stroke:#000000;stroke-width:0.5;" x="276.472475329" xlink:href="#m7826282e09" y="379.385928375"/>
     <use style="fill:#ffa500;stroke:#000000;stroke-width:0.5;" x="289.659128289" xlink:href="#m7826282e09" y="369.319241779"/>
     <use style="fill:#ffa500;stroke:#000000;stroke-width:0.5;" x="302.84578125" xlink:href="#m7826282e09" y="358.928569867"/>
    </g>
   </g>
   <g id="line2d_9">
    <path clip-path="url(#p65bd822ae2)" d="
M52.2994 288.503
L65.486 291.224
L78.6727 294.76
L91.8593 299.019
L105.046 303.863
L118.233 309.101
L131.419 314.482
L144.606 319.691
L157.793 324.335
L170.979 327.945
L184.166 329.959
L197.353 329.719
L210.539 326.459
L223.726 319.299
L236.913 307.231
L250.099 289.113
L263.286 263.657
L276.472 229.419
L289.659 184.785
L302.846 127.964" style="fill:none;opacity:0.8;stroke:#000000;stroke-dasharray:1.000000,3.000000;stroke-dashoffset:0.0;stroke-width:2;"/>
    <defs>
     <path d="
M0 3
C0.795609 3 1.55874 2.6839 2.12132 2.12132
C2.6839 1.55874 3 0.795609 3 0
C3 -0.795609 2.6839 -1.55874 2.12132 -2.12132
C1.55874 -2.6839 0.795609 -3 0 -3
C-0.795609 -3 -1.55874 -2.6839 -2.12132 -2.12132
C-2.6839 -1.55874 -3 -0.795609 -3 0
C-3 0.795609 -2.6839 1.55874 -2.12132 2.12132
C-1.55874 2.6839 -0.795609 3 0 3
z
" id="m6ad747730d" style="stroke:#000000;stroke-width:0.5;"/>
    </defs>
    <g clip-path="url(#p65bd822ae2)">
     <use style="opacity:0.8;stroke:#000000;stroke-width:0.5;" x="52.299375" xlink:href="#m6ad747730d" y="288.503139393"/>
     <use style="opacity:0.8;stroke:#000000;stroke-width:0.5;" x="65.4860279605" xlink:href="#m6ad747730d" y="291.223802302"/>
     <use style="opacity:0.8;stroke:#000000;stroke-width:0.5;" x="78.6726809211" xlink:href="#m6ad747730d" y="294.75960758"/>
     <use style="opacity:0.8;stroke:#000000;stroke-width:0.5;" x="91.8593338816" xlink:href="#m6ad747730d" y="299.018767264"/>
     <use style="opacity:0.8;stroke:#000000;stroke-width:0.5;" x="105.045986842" xlink:href="#m6ad747730d" y="303.862909485"/>
     <use style="opacity:0.8;stroke:#000000;stroke-width:0.5;" x="118.232639803" xlink:href="#m6ad747730d" y="309.10091157"/>
     <use style="opacity:0.8;stroke:#000000;stroke-width:0.5;" x="131.419292763" xlink:href="#m6ad747730d" y="314.482349422"/>
     <use style="opacity:0.8;stroke:#000000;stroke-width:0.5;" x="144.605945724" xlink:href="#m6ad747730d" y="319.690563185"/>
     <use style="opacity:0.8;stroke:#000000;stroke-width:0.5;" x="157.792598684" xlink:href="#m6ad747730d" y="324.335339195"/>
     <use style="opacity:0.8;stroke:#000000;stroke-width:0.5;" x="170.979251645" xlink:href="#m6ad747730d" y="327.945208202"/>
     <use style="opacity:0.8;stroke:#000000;stroke-width:0.5;" x="184.165904605" xlink:href="#m6ad747730d" y="329.959359884"/>
     <use style="opacity:0.8;stroke:#000000;stroke-width:0.5;" x="197.352557566" xlink:href="#m6ad747730d" y="329.71917364"/>
     <use style="opacity:0.8;stroke:#000000;stroke-width:0.5;" x="210.539210526" xlink:href="#m6ad747730d" y="326.45936566"/>
     <use style="opacity:0.8;stroke:#000000;stroke-width:0.5;" x="223.725863487" xlink:href="#m6ad747730d" y="319.298752285"/>
     <use style="opacity:0.8;stroke:#000000;stroke-width:0.5;" x="236.912516447" xlink:href="#m6ad747730d" y="307.230629641"/>
     <use style="opacity:0.8;stroke:#000000;stroke-width:0.5;" x="250.099169408" xlink:href="#m6ad747730d" y="289.112769562"/>
     <use style="opacity:0.8;stroke:#000000;stroke-width:0.5;" x="263.285822368" xlink:href="#m6ad747730d" y="263.657031787"/>
     <use style="opacity:0.8;stroke:#000000;stroke-width:0.5;" x="276.472475329" xlink:href="#m6ad747730d" y="229.418592448"/>
     <use style="opacity:0.8;stroke:#000000;stroke-width:0.5;" x="289.659128289" xlink:href="#m6ad747730d" y="184.784788831"/>
     <use style="opacity:0.8;stroke:#000000;stroke-width:0.5;" x="302.84578125" xlink:href="#m6ad747730d" y="127.963580424"/>
    </g>
   </g>
   <g id="patch_3">
    <path d="
M52.2994 18.7669
L338.638 18.7669" style="fill:none;stroke:#000000;stroke-linecap:square;stroke-linejoin:miter;"/>
   </g>
   <g id="patch_4">
    <path d="
M52.2994 530.786
L338.638 530.786" style="fill:none;stroke:#000000;stroke-linecap:square;stroke-linejoin:miter;"/>
   </g>
   <g id="patch_5">
    <path d="
M338.638 530.786
L338.638 18.7669" style="fill:none;stroke:#000000;stroke-linecap:square;stroke-linejoin:miter;"/>
   </g>
   <g id="patch_6">
    <path d="
M52.2994 530.786
L52.2994 18.7669" style="fill:none;stroke:#000000;stroke-linecap:square;stroke-linejoin:miter;"/>
   </g>
   <g id="matplotlib.axis_1">
    <g id="xtick_1">
     <g id="line2d_10">
      <defs>
       <path d="
M0 0
L0 -4" id="mc7db9fdffb" style="stroke:#000000;stroke-width:0.5;"/>
      </defs>
      <g>
       <use style="stroke:#000000;stroke-width:0.5;" x="52.299375" xlink:href="#mc7db9fdffb" y="530.78625"/>
      </g>
     </g>
     <g id="line2d_11">
      <defs>
       <path d="
M0 0
L0 4" id="m5a7d422ac3" style="stroke:#000000;stroke-width:0.5;"/>
      </defs>
      <g>
       <use style="stroke:#000000;stroke-width:0.5;" x="52.299375" xlink:href="#m5a7d422ac3" y="18.766875"/>
      </g>
     </g>
     <g id="text_1">
      <!-- 0.5 -->
      <defs>
       <path d="
M10.7969 72.9062
L49.5156 72.9062
L49.5156 64.5938
L19.8281 64.5938
L19.8281 46.7344
Q21.9688 47.4688 24.1094 47.8281
Q26.2656 48.1875 28.4219 48.1875
Q40.625 48.1875 47.75 41.5
Q54.8906 34.8125 54.8906 23.3906
Q54.8906 11.625 47.5625 5.09375
Q40.2344 -1.42188 26.9062 -1.42188
Q22.3125 -1.42188 17.5469 -0.640625
Q12.7969 0.140625 7.71875 1.70312
L7.71875 11.625
Q12.1094 9.23438 16.7969 8.0625
Q21.4844 6.89062 26.7031 6.89062
Q35.1562 6.89062 40.0781 11.3281
Q45.0156 15.7656 45.0156 23.3906
Q45.0156 31 40.0781 35.4375
Q35.1562 39.8906 26.7031 39.8906
Q22.75 39.8906 18.8125 39.0156
Q14.8906 38.1406 10.7969 36.2812
z
" id="BitstreamVeraSans-Roman-35"/>
       <path d="
M31.7812 66.4062
Q24.1719 66.4062 20.3281 58.9062
Q16.5 51.4219 16.5 36.375
Q16.5 21.3906 20.3281 13.8906
Q24.1719 6.39062 31.7812 6.39062
Q39.4531 6.39062 43.2812 13.8906
Q47.125 21.3906 47.125 36.375
Q47.125 51.4219 43.2812 58.9062
Q39.4531 66.4062 31.7812 66.4062
M31.7812 74.2188
Q44.0469 74.2188 50.5156 64.5156
Q56.9844 54.8281 56.9844 36.375
Q56.9844 17.9688 50.5156 8.26562
Q44.0469 -1.42188 31.7812 -1.42188
Q19.5312 -1.42188 13.0625 8.26562
Q6.59375 17.9688 6.59375 36.375
Q6.59375 54.8281 13.0625 64.5156
Q19.5312 74.2188 31.7812 74.2188" id="BitstreamVeraSans-Roman-30"/>
       <path d="
M10.6875 12.4062
L21 12.4062
L21 0
L10.6875 0
z
" id="BitstreamVeraSans-Roman-2e"/>
      </defs>
      <g transform="translate(43.6771875 543.904375)scale(0.12 -0.12)">
       <use xlink:href="#BitstreamVeraSans-Roman-30"/>
       <use x="63.623046875" xlink:href="#BitstreamVeraSans-Roman-2e"/>
       <use x="95.41015625" xlink:href="#BitstreamVeraSans-Roman-35"/>
      </g>
     </g>
    </g>
    <g id="xtick_2">
     <g id="line2d_12">
      <g>
       <use style="stroke:#000000;stroke-width:0.5;" x="88.09171875" xlink:href="#mc7db9fdffb" y="530.78625"/>
      </g>
     </g>
     <g id="line2d_13">
      <g>
       <use style="stroke:#000000;stroke-width:0.5;" x="88.09171875" xlink:href="#m5a7d422ac3" y="18.766875"/>
      </g>
     </g>
     <g id="text_2">
      <!-- 0.6 -->
      <defs>
       <path d="
M33.0156 40.375
Q26.375 40.375 22.4844 35.8281
Q18.6094 31.2969 18.6094 23.3906
Q18.6094 15.5312 22.4844 10.9531
Q26.375 6.39062 33.0156 6.39062
Q39.6562 6.39062 43.5312 10.9531
Q47.4062 15.5312 47.4062 23.3906
Q47.4062 31.2969 43.5312 35.8281
Q39.6562 40.375 33.0156 40.375
M52.5938 71.2969
L52.5938 62.3125
Q48.875 64.0625 45.0938 64.9844
Q41.3125 65.9219 37.5938 65.9219
Q27.8281 65.9219 22.6719 59.3281
Q17.5312 52.7344 16.7969 39.4062
Q19.6719 43.6562 24.0156 45.9219
Q28.375 48.1875 33.5938 48.1875
Q44.5781 48.1875 50.9531 41.5156
Q57.3281 34.8594 57.3281 23.3906
Q57.3281 12.1562 50.6875 5.35938
Q44.0469 -1.42188 33.0156 -1.42188
Q20.3594 -1.42188 13.6719 8.26562
Q6.98438 17.9688 6.98438 36.375
Q6.98438 53.6562 15.1875 63.9375
Q23.3906 74.2188 37.2031 74.2188
Q40.9219 74.2188 44.7031 73.4844
Q48.4844 72.75 52.5938 71.2969" id="BitstreamVeraSans-Roman-36"/>
      </defs>
      <g transform="translate(79.32328125 543.904375)scale(0.12 -0.12)">
       <use xlink:href="#BitstreamVeraSans-Roman-30"/>
       <use x="63.623046875" xlink:href="#BitstreamVeraSans-Roman-2e"/>
       <use x="95.41015625" xlink:href="#BitstreamVeraSans-Roman-36"/>
      </g>
     </g>
    </g>
    <g id="xtick_3">
     <g id="line2d_14">
      <g>
       <use style="stroke:#000000;stroke-width:0.5;" x="123.8840625" xlink:href="#mc7db9fdffb" y="530.78625"/>
      </g>
     </g>
     <g id="line2d_15">
      <g>
       <use style="stroke:#000000;stroke-width:0.5;" x="123.8840625" xlink:href="#m5a7d422ac3" y="18.766875"/>
      </g>
     </g>
     <g id="text_3">
      <!-- 0.7 -->
      <defs>
       <path d="
M8.20312 72.9062
L55.0781 72.9062
L55.0781 68.7031
L28.6094 0
L18.3125 0
L43.2188 64.5938
L8.20312 64.5938
z
" id="BitstreamVeraSans-Roman-37"/>
      </defs>
      <g transform="translate(115.250625 543.904375)scale(0.12 -0.12)">
       <use xlink:href="#BitstreamVeraSans-Roman-30"/>
       <use x="63.623046875" xlink:href="#BitstreamVeraSans-Roman-2e"/>
       <use x="95.41015625" xlink:href="#BitstreamVeraSans-Roman-37"/>
      </g>
     </g>
    </g>
    <g id="xtick_4">
     <g id="line2d_16">
      <g>
       <use style="stroke:#000000;stroke-width:0.5;" x="159.67640625" xlink:href="#mc7db9fdffb" y="530.78625"/>
      </g>
     </g>
     <g id="line2d_17">
      <g>
       <use style="stroke:#000000;stroke-width:0.5;" x="159.67640625" xlink:href="#m5a7d422ac3" y="18.766875"/>
      </g>
     </g>
     <g id="text_4">
      <!-- 0.8 -->
      <defs>
       <path d="
M31.7812 34.625
Q24.75 34.625 20.7188 30.8594
Q16.7031 27.0938 16.7031 20.5156
Q16.7031 13.9219 20.7188 10.1562
Q24.75 6.39062 31.7812 6.39062
Q38.8125 6.39062 42.8594 10.1719
Q46.9219 13.9688 46.9219 20.5156
Q46.9219 27.0938 42.8906 30.8594
Q38.875 34.625 31.7812 34.625
M21.9219 38.8125
Q15.5781 40.375 12.0312 44.7188
Q8.5 49.0781 8.5 55.3281
Q8.5 64.0625 14.7188 69.1406
Q20.9531 74.2188 31.7812 74.2188
Q42.6719 74.2188 48.875 69.1406
Q55.0781 64.0625 55.0781 55.3281
Q55.0781 49.0781 51.5312 44.7188
Q48 40.375 41.7031 38.8125
Q48.8281 37.1562 52.7969 32.3125
Q56.7812 27.4844 56.7812 20.5156
Q56.7812 9.90625 50.3125 4.23438
Q43.8438 -1.42188 31.7812 -1.42188
Q19.7344 -1.42188 13.25 4.23438
Q6.78125 9.90625 6.78125 20.5156
Q6.78125 27.4844 10.7812 32.3125
Q14.7969 37.1562 21.9219 38.8125
M18.3125 54.3906
Q18.3125 48.7344 21.8438 45.5625
Q25.3906 42.3906 31.7812 42.3906
Q38.1406 42.3906 41.7188 45.5625
Q45.3125 48.7344 45.3125 54.3906
Q45.3125 60.0625 41.7188 63.2344
Q38.1406 66.4062 31.7812 66.4062
Q25.3906 66.4062 21.8438 63.2344
Q18.3125 60.0625 18.3125 54.3906" id="BitstreamVeraSans-Roman-38"/>
      </defs>
      <g transform="translate(150.94078125 543.904375)scale(0.12 -0.12)">
       <use xlink:href="#BitstreamVeraSans-Roman-30"/>
       <use x="63.623046875" xlink:href="#BitstreamVeraSans-Roman-2e"/>
       <use x="95.41015625" xlink:href="#BitstreamVeraSans-Roman-38"/>
      </g>
     </g>
    </g>
    <g id="xtick_5">
     <g id="line2d_18">
      <g>
       <use style="stroke:#000000;stroke-width:0.5;" x="195.46875" xlink:href="#mc7db9fdffb" y="530.78625"/>
      </g>
     </g>
     <g id="line2d_19">
      <g>
       <use style="stroke:#000000;stroke-width:0.5;" x="195.46875" xlink:href="#m5a7d422ac3" y="18.766875"/>
      </g>
     </g>
     <g id="text_5">
      <!-- 0.9 -->
      <defs>
       <path d="
M10.9844 1.51562
L10.9844 10.5
Q14.7031 8.73438 18.5 7.8125
Q22.3125 6.89062 25.9844 6.89062
Q35.75 6.89062 40.8906 13.4531
Q46.0469 20.0156 46.7812 33.4062
Q43.9531 29.2031 39.5938 26.9531
Q35.25 24.7031 29.9844 24.7031
Q19.0469 24.7031 12.6719 31.3125
Q6.29688 37.9375 6.29688 49.4219
Q6.29688 60.6406 12.9375 67.4219
Q19.5781 74.2188 30.6094 74.2188
Q43.2656 74.2188 49.9219 64.5156
Q56.5938 54.8281 56.5938 36.375
Q56.5938 19.1406 48.4062 8.85938
Q40.2344 -1.42188 26.4219 -1.42188
Q22.7031 -1.42188 18.8906 -0.6875
Q15.0938 0.046875 10.9844 1.51562
M30.6094 32.4219
Q37.25 32.4219 41.125 36.9531
Q45.0156 41.5 45.0156 49.4219
Q45.0156 57.2812 41.125 61.8438
Q37.25 66.4062 30.6094 66.4062
Q23.9688 66.4062 20.0938 61.8438
Q16.2188 57.2812 16.2188 49.4219
Q16.2188 41.5 20.0938 36.9531
Q23.9688 32.4219 30.6094 32.4219" id="BitstreamVeraSans-Roman-39"/>
      </defs>
      <g transform="translate(186.744375 543.904375)scale(0.12 -0.12)">
       <use xlink:href="#BitstreamVeraSans-Roman-30"/>
       <use x="63.623046875" xlink:href="#BitstreamVeraSans-Roman-2e"/>
       <use x="95.41015625" xlink:href="#BitstreamVeraSans-Roman-39"/>
      </g>
     </g>
    </g>
    <g id="xtick_6">
     <g id="line2d_20">
      <g>
       <use style="stroke:#000000;stroke-width:0.5;" x="231.26109375" xlink:href="#mc7db9fdffb" y="530.78625"/>
      </g>
     </g>
     <g id="line2d_21">
      <g>
       <use style="stroke:#000000;stroke-width:0.5;" x="231.26109375" xlink:href="#m5a7d422ac3" y="18.766875"/>
      </g>
     </g>
     <g id="text_6">
      <!-- 1.0 -->
      <defs>
       <path d="
M12.4062 8.29688
L28.5156 8.29688
L28.5156 63.9219
L10.9844 60.4062
L10.9844 69.3906
L28.4219 72.9062
L38.2812 72.9062
L38.2812 8.29688
L54.3906 8.29688
L54.3906 0
L12.4062 0
z
" id="BitstreamVeraSans-Roman-31"/>
      </defs>
      <g transform="translate(222.77671875 543.904375)scale(0.12 -0.12)">
       <use xlink:href="#BitstreamVeraSans-Roman-31"/>
       <use x="63.623046875" xlink:href="#BitstreamVeraSans-Roman-2e"/>
       <use x="95.41015625" xlink:href="#BitstreamVeraSans-Roman-30"/>
      </g>
     </g>
    </g>
    <g id="xtick_7">
     <g id="line2d_22">
      <g>
       <use style="stroke:#000000;stroke-width:0.5;" x="267.0534375" xlink:href="#mc7db9fdffb" y="530.78625"/>
      </g>
     </g>
     <g id="line2d_23">
      <g>
       <use style="stroke:#000000;stroke-width:0.5;" x="267.0534375" xlink:href="#m5a7d422ac3" y="18.766875"/>
      </g>
     </g>
     <g id="text_7">
      <!-- 1.1 -->
      <g transform="translate(258.7246875 543.904375)scale(0.12 -0.12)">
       <use xlink:href="#BitstreamVeraSans-Roman-31"/>
       <use x="63.623046875" xlink:href="#BitstreamVeraSans-Roman-2e"/>
       <use x="95.41015625" xlink:href="#BitstreamVeraSans-Roman-31"/>
      </g>
     </g>
    </g>
    <g id="xtick_8">
     <g id="line2d_24">
      <g>
       <use style="stroke:#000000;stroke-width:0.5;" x="302.84578125" xlink:href="#mc7db9fdffb" y="530.78625"/>
      </g>
     </g>
     <g id="line2d_25">
      <g>
       <use style="stroke:#000000;stroke-width:0.5;" x="302.84578125" xlink:href="#m5a7d422ac3" y="18.766875"/>
      </g>
     </g>
     <g id="text_8">
      <!-- 1.2 -->
      <defs>
       <path d="
M19.1875 8.29688
L53.6094 8.29688
L53.6094 0
L7.32812 0
L7.32812 8.29688
Q12.9375 14.1094 22.625 23.8906
Q32.3281 33.6875 34.8125 36.5312
Q39.5469 41.8438 41.4219 45.5312
Q43.3125 49.2188 43.3125 52.7812
Q43.3125 58.5938 39.2344 62.25
Q35.1562 65.9219 28.6094 65.9219
Q23.9688 65.9219 18.8125 64.3125
Q13.6719 62.7031 7.8125 59.4219
L7.8125 69.3906
Q13.7656 71.7812 18.9375 73
Q24.125 74.2188 28.4219 74.2188
Q39.75 74.2188 46.4844 68.5469
Q53.2188 62.8906 53.2188 53.4219
Q53.2188 48.9219 51.5312 44.8906
Q49.8594 40.875 45.4062 35.4062
Q44.1875 33.9844 37.6406 27.2188
Q31.1094 20.4531 19.1875 8.29688" id="BitstreamVeraSans-Roman-32"/>
      </defs>
      <g transform="translate(294.56390625 543.904375)scale(0.12 -0.12)">
       <use xlink:href="#BitstreamVeraSans-Roman-31"/>
       <use x="63.623046875" xlink:href="#BitstreamVeraSans-Roman-2e"/>
       <use x="95.41015625" xlink:href="#BitstreamVeraSans-Roman-32"/>
      </g>
     </g>
    </g>
    <g id="xtick_9">
     <g id="line2d_26">
      <g>
       <use style="stroke:#000000;stroke-width:0.5;" x="338.638125" xlink:href="#mc7db9fdffb" y="530.78625"/>
      </g>
     </g>
     <g id="line2d_27">
      <g>
       <use style="stroke:#000000;stroke-width:0.5;" x="338.638125" xlink:href="#m5a7d422ac3" y="18.766875"/>
      </g>
     </g>
     <g id="text_9">
      <!-- 1.3 -->
      <defs>
       <path d="
M40.5781 39.3125
Q47.6562 37.7969 51.625 33
Q55.6094 28.2188 55.6094 21.1875
Q55.6094 10.4062 48.1875 4.48438
Q40.7656 -1.42188 27.0938 -1.42188
Q22.5156 -1.42188 17.6562 -0.515625
Q12.7969 0.390625 7.625 2.20312
L7.625 11.7188
Q11.7188 9.32812 16.5938 8.10938
Q21.4844 6.89062 26.8125 6.89062
Q36.0781 6.89062 40.9375 10.5469
Q45.7969 14.2031 45.7969 21.1875
Q45.7969 27.6406 41.2812 31.2656
Q36.7656 34.9062 28.7188 34.9062
L20.2188 34.9062
L20.2188 43.0156
L29.1094 43.0156
Q36.375 43.0156 40.2344 45.9219
Q44.0938 48.8281 44.0938 54.2969
Q44.0938 59.9062 40.1094 62.9062
Q36.1406 65.9219 28.7188 65.9219
Q24.6562 65.9219 20.0156 65.0312
Q15.375 64.1562 9.8125 62.3125
L9.8125 71.0938
Q15.4375 72.6562 20.3438 73.4375
Q25.25 74.2188 29.5938 74.2188
Q40.8281 74.2188 47.3594 69.1094
Q53.9062 64.0156 53.9062 55.3281
Q53.9062 49.2656 50.4375 45.0938
Q46.9688 40.9219 40.5781 39.3125" id="BitstreamVeraSans-Roman-33"/>
      </defs>
      <g transform="translate(330.23625 543.904375)scale(0.12 -0.12)">
       <use xlink:href="#BitstreamVeraSans-Roman-31"/>
       <use x="63.623046875" xlink:href="#BitstreamVeraSans-Roman-2e"/>
       <use x="95.41015625" xlink:href="#BitstreamVeraSans-Roman-33"/>
      </g>
     </g>
    </g>
    <g id="text_10">
     <!-- Isotropic scaling $\delta$ -->
     <defs>
      <path id="BitstreamVeraSans-Roman-20"/>
      <path d="
M20.0156 -1.51562
Q16.5469 -1.51562 13.5625 -0.21875
Q10.5938 1.07812 8.375 3.51562
Q6.15625 5.95312 5.07812 8.95312
Q4 11.9688 4 15.4844
Q4 21.7344 6.95312 27.6094
Q9.90625 33.5 15.0156 37.7969
Q20.125 42.0938 26.125 43.6094
Q23.1875 49.0312 21.6562 52.9531
Q20.125 56.8906 20.125 60.9844
Q20.125 64.0156 21.5312 66.3281
Q22.9531 68.6562 25.4375 69.9688
Q27.9375 71.2969 31 71.2969
Q33.9844 71.2969 42.8281 69.2812
Q45.125 68.75 45.125 66.6094
Q45.125 64.9375 43.8906 63.5625
Q42.6719 62.2031 41.0156 62.2031
Q39.7969 62.2031 38.8125 62.7656
Q37.8438 63.3281 35.7344 64.7344
Q33.6406 66.1562 31.9844 66.9062
Q30.3281 67.6719 28.5156 67.6719
Q26.4688 67.6719 24.8281 66.4219
Q23.1875 65.1875 23.1875 63.1875
Q23.1875 60.0156 26 55.8906
Q28.8125 51.7656 33.9844 45.3125
Q39.8906 37.7969 39.8906 28.7188
Q39.8906 24.2188 38.5938 18.9844
Q37.3125 13.7656 34.8438 9.125
Q32.375 4.5 28.5312 1.48438
Q24.7031 -1.51562 20.0156 -1.51562
M20.2188 1.21875
Q24.125 1.21875 26.9219 5.26562
Q29.7344 9.32812 31.1719 14.9219
Q32.625 20.5156 32.625 24.3125
Q32.625 31.7812 27.3906 41.1094
Q22.125 39.6562 18.3125 34.9688
Q14.5 30.2812 12.5469 24.1719
Q10.5938 18.0625 10.5938 12.5938
Q10.5938 7.8125 13.0781 4.51562
Q15.5781 1.21875 20.2188 1.21875" id="Cmmi10-b1"/>
      <path d="
M9.42188 75.9844
L18.4062 75.9844
L18.4062 0
L9.42188 0
z
" id="BitstreamVeraSans-Roman-6c"/>
      <path d="
M9.42188 54.6875
L18.4062 54.6875
L18.4062 0
L9.42188 0
z

M9.42188 75.9844
L18.4062 75.9844
L18.4062 64.5938
L9.42188 64.5938
z
" id="BitstreamVeraSans-Roman-69"/>
      <path d="
M54.8906 33.0156
L54.8906 0
L45.9062 0
L45.9062 32.7188
Q45.9062 40.4844 42.875 44.3281
Q39.8438 48.1875 33.7969 48.1875
Q26.5156 48.1875 22.3125 43.5469
Q18.1094 38.9219 18.1094 30.9062
L18.1094 0
L9.07812 0
L9.07812 54.6875
L18.1094 54.6875
L18.1094 46.1875
Q21.3438 51.125 25.7031 53.5625
Q30.0781 56 35.7969 56
Q45.2188 56 50.0469 50.1719
Q54.8906 44.3438 54.8906 33.0156" id="BitstreamVeraSans-Roman-6e"/>
      <path d="
M18.3125 70.2188
L18.3125 54.6875
L36.8125 54.6875
L36.8125 47.7031
L18.3125 47.7031
L18.3125 18.0156
Q18.3125 11.3281 20.1406 9.42188
Q21.9688 7.51562 27.5938 7.51562
L36.8125 7.51562
L36.8125 0
L27.5938 0
Q17.1875 0 13.2344 3.875
Q9.28125 7.76562 9.28125 18.0156
L9.28125 47.7031
L2.6875 47.7031
L2.6875 54.6875
L9.28125 54.6875
L9.28125 70.2188
z
" id="BitstreamVeraSans-Roman-74"/>
      <path d="
M41.1094 46.2969
Q39.5938 47.1719 37.8125 47.5781
Q36.0312 48 33.8906 48
Q26.2656 48 22.1875 43.0469
Q18.1094 38.0938 18.1094 28.8125
L18.1094 0
L9.07812 0
L9.07812 54.6875
L18.1094 54.6875
L18.1094 46.1875
Q20.9531 51.1719 25.4844 53.5781
Q30.0312 56 36.5312 56
Q37.4531 56 38.5781 55.875
Q39.7031 55.7656 41.0625 55.5156
z
" id="BitstreamVeraSans-Roman-72"/>
      <path d="
M34.2812 27.4844
Q23.3906 27.4844 19.1875 25
Q14.9844 22.5156 14.9844 16.5
Q14.9844 11.7188 18.1406 8.90625
Q21.2969 6.10938 26.7031 6.10938
Q34.1875 6.10938 38.7031 11.4062
Q43.2188 16.7031 43.2188 25.4844
L43.2188 27.4844
z

M52.2031 31.2031
L52.2031 0
L43.2188 0
L43.2188 8.29688
Q40.1406 3.32812 35.5469 0.953125
Q30.9531 -1.42188 24.3125 -1.42188
Q15.9219 -1.42188 10.9531 3.29688
Q6 8.01562 6 15.9219
Q6 25.1406 12.1719 29.8281
Q18.3594 34.5156 30.6094 34.5156
L43.2188 34.5156
L43.2188 35.4062
Q43.2188 41.6094 39.1406 45
Q35.0625 48.3906 27.6875 48.3906
Q23 48.3906 18.5469 47.2656
Q14.1094 46.1406 10.0156 43.8906
L10.0156 52.2031
Q14.9375 54.1094 19.5781 55.0469
Q24.2188 56 28.6094 56
Q40.4844 56 46.3438 49.8438
Q52.2031 43.7031 52.2031 31.2031" id="BitstreamVeraSans-Roman-61"/>
      <path d="
M30.6094 48.3906
Q23.3906 48.3906 19.1875 42.75
Q14.9844 37.1094 14.9844 27.2969
Q14.9844 17.4844 19.1562 11.8438
Q23.3438 6.20312 30.6094 6.20312
Q37.7969 6.20312 41.9844 11.8594
Q46.1875 17.5312 46.1875 27.2969
Q46.1875 37.0156 41.9844 42.7031
Q37.7969 48.3906 30.6094 48.3906
M30.6094 56
Q42.3281 56 49.0156 48.375
Q55.7188 40.7656 55.7188 27.2969
Q55.7188 13.875 49.0156 6.21875
Q42.3281 -1.42188 30.6094 -1.42188
Q18.8438 -1.42188 12.1719 6.21875
Q5.51562 13.875 5.51562 27.2969
Q5.51562 40.7656 12.1719 48.375
Q18.8438 56 30.6094 56" id="BitstreamVeraSans-Roman-6f"/>
      <path d="
M48.7812 52.5938
L48.7812 44.1875
Q44.9688 46.2969 41.1406 47.3438
Q37.3125 48.3906 33.4062 48.3906
Q24.6562 48.3906 19.8125 42.8438
Q14.9844 37.3125 14.9844 27.2969
Q14.9844 17.2812 19.8125 11.7344
Q24.6562 6.20312 33.4062 6.20312
Q37.3125 6.20312 41.1406 7.25
Q44.9688 8.29688 48.7812 10.4062
L48.7812 2.09375
Q45.0156 0.34375 40.9844 -0.53125
Q36.9688 -1.42188 32.4219 -1.42188
Q20.0625 -1.42188 12.7812 6.34375
Q5.51562 14.1094 5.51562 27.2969
Q5.51562 40.6719 12.8594 48.3281
Q20.2188 56 33.0156 56
Q37.1562 56 41.1094 55.1406
Q45.0625 54.2969 48.7812 52.5938" id="BitstreamVeraSans-Roman-63"/>
      <path d="
M18.1094 8.20312
L18.1094 -20.7969
L9.07812 -20.7969
L9.07812 54.6875
L18.1094 54.6875
L18.1094 46.3906
Q20.9531 51.2656 25.2656 53.625
Q29.5938 56 35.5938 56
Q45.5625 56 51.7812 48.0938
Q58.0156 40.1875 58.0156 27.2969
Q58.0156 14.4062 51.7812 6.48438
Q45.5625 -1.42188 35.5938 -1.42188
Q29.5938 -1.42188 25.2656 0.953125
Q20.9531 3.32812 18.1094 8.20312
M48.6875 27.2969
Q48.6875 37.2031 44.6094 42.8438
Q40.5312 48.4844 33.4062 48.4844
Q26.2656 48.4844 22.1875 42.8438
Q18.1094 37.2031 18.1094 27.2969
Q18.1094 17.3906 22.1875 11.75
Q26.2656 6.10938 33.4062 6.10938
Q40.5312 6.10938 44.6094 11.75
Q48.6875 17.3906 48.6875 27.2969" id="BitstreamVeraSans-Roman-70"/>
      <path d="
M45.4062 27.9844
Q45.4062 37.75 41.375 43.1094
Q37.3594 48.4844 30.0781 48.4844
Q22.8594 48.4844 18.8281 43.1094
Q14.7969 37.75 14.7969 27.9844
Q14.7969 18.2656 18.8281 12.8906
Q22.8594 7.51562 30.0781 7.51562
Q37.3594 7.51562 41.375 12.8906
Q45.4062 18.2656 45.4062 27.9844
M54.3906 6.78125
Q54.3906 -7.17188 48.1875 -13.9844
Q42 -20.7969 29.2031 -20.7969
Q24.4688 -20.7969 20.2656 -20.0938
Q16.0625 -19.3906 12.1094 -17.9219
L12.1094 -9.1875
Q16.0625 -11.3281 19.9219 -12.3438
Q23.7812 -13.375 27.7812 -13.375
Q36.625 -13.375 41.0156 -8.76562
Q45.4062 -4.15625 45.4062 5.17188
L45.4062 9.625
Q42.625 4.78125 38.2812 2.39062
Q33.9375 0 27.875 0
Q17.8281 0 11.6719 7.65625
Q5.51562 15.3281 5.51562 27.9844
Q5.51562 40.6719 11.6719 48.3281
Q17.8281 56 27.875 56
Q33.9375 56 38.2812 53.6094
Q42.625 51.2188 45.4062 46.3906
L45.4062 54.6875
L54.3906 54.6875
z
" id="BitstreamVeraSans-Roman-67"/>
      <path d="
M9.8125 72.9062
L19.6719 72.9062
L19.6719 0
L9.8125 0
z
" id="BitstreamVeraSans-Roman-49"/>
      <path d="
M44.2812 53.0781
L44.2812 44.5781
Q40.4844 46.5312 36.375 47.5
Q32.2812 48.4844 27.875 48.4844
Q21.1875 48.4844 17.8438 46.4375
Q14.5 44.3906 14.5 40.2812
Q14.5 37.1562 16.8906 35.375
Q19.2812 33.5938 26.5156 31.9844
L29.5938 31.2969
Q39.1562 29.25 43.1875 25.5156
Q47.2188 21.7812 47.2188 15.0938
Q47.2188 7.46875 41.1875 3.01562
Q35.1562 -1.42188 24.6094 -1.42188
Q20.2188 -1.42188 15.4531 -0.5625
Q10.6875 0.296875 5.42188 2
L5.42188 11.2812
Q10.4062 8.6875 15.2344 7.39062
Q20.0625 6.10938 24.8125 6.10938
Q31.1562 6.10938 34.5625 8.28125
Q37.9844 10.4531 37.9844 14.4062
Q37.9844 18.0625 35.5156 20.0156
Q33.0625 21.9688 24.7031 23.7812
L21.5781 24.5156
Q13.2344 26.2656 9.51562 29.9062
Q5.8125 33.5469 5.8125 39.8906
Q5.8125 47.6094 11.2812 51.7969
Q16.75 56 26.8125 56
Q31.7812 56 36.1719 55.2656
Q40.5781 54.5469 44.2812 53.0781" id="BitstreamVeraSans-Roman-73"/>
     </defs>
     <g transform="translate(142.06875 560.52)scale(0.12 -0.12)">
      <use transform="translate(0.0 0.015625)" xlink:href="#BitstreamVeraSans-Roman-49"/>
      <use transform="translate(29.4921875 0.015625)" xlink:href="#BitstreamVeraSans-Roman-73"/>
      <use transform="translate(81.591796875 0.015625)" xlink:href="#BitstreamVeraSans-Roman-6f"/>
      <use transform="translate(142.7734375 0.015625)" xlink:href="#BitstreamVeraSans-Roman-74"/>
      <use transform="translate(181.982421875 0.015625)" xlink:href="#BitstreamVeraSans-Roman-72"/>
      <use transform="translate(223.095703125 0.015625)" xlink:href="#BitstreamVeraSans-Roman-6f"/>
      <use transform="translate(284.27734375 0.015625)" xlink:href="#BitstreamVeraSans-Roman-70"/>
      <use transform="translate(347.75390625 0.015625)" xlink:href="#BitstreamVeraSans-Roman-69"/>
      <use transform="translate(375.537109375 0.015625)" xlink:href="#BitstreamVeraSans-Roman-63"/>
      <use transform="translate(430.517578125 0.015625)" xlink:href="#BitstreamVeraSans-Roman-20"/>
      <use transform="translate(462.3046875 0.015625)" xlink:href="#BitstreamVeraSans-Roman-73"/>
      <use transform="translate(514.404296875 0.015625)" xlink:href="#BitstreamVeraSans-Roman-63"/>
      <use transform="translate(569.384765625 0.015625)" xlink:href="#BitstreamVeraSans-Roman-61"/>
      <use transform="translate(630.6640625 0.015625)" xlink:href="#BitstreamVeraSans-Roman-6c"/>
      <use transform="translate(658.447265625 0.015625)" xlink:href="#BitstreamVeraSans-Roman-69"/>
      <use transform="translate(686.23046875 0.015625)" xlink:href="#BitstreamVeraSans-Roman-6e"/>
      <use transform="translate(749.609375 0.015625)" xlink:href="#BitstreamVeraSans-Roman-67"/>
      <use transform="translate(813.0859375 0.015625)" xlink:href="#BitstreamVeraSans-Roman-20"/>
      <use transform="translate(844.873046875 0.015625)" xlink:href="#Cmmi10-b1"/>
     </g>
    </g>
   </g>
   <g id="matplotlib.axis_2">
    <g id="ytick_1">
     <g id="line2d_28">
      <defs>
       <path d="
M0 0
L4 0" id="md7965d1ba0" style="stroke:#000000;stroke-width:0.5;"/>
      </defs>
      <g>
       <use style="stroke:#000000;stroke-width:0.5;" x="52.299375" xlink:href="#md7965d1ba0" y="530.78625"/>
      </g>
     </g>
     <g id="line2d_29">
      <defs>
       <path d="
M0 0
L-4 0" id="md9a1c1a7cd" style="stroke:#000000;stroke-width:0.5;"/>
      </defs>
      <g>
       <use style="stroke:#000000;stroke-width:0.5;" x="338.638125" xlink:href="#md9a1c1a7cd" y="530.78625"/>
      </g>
     </g>
     <g id="text_11">
      <!-- 0.0 -->
      <g transform="translate(30.80375 534.0975)scale(0.12 -0.12)">
       <use xlink:href="#BitstreamVeraSans-Roman-30"/>
       <use x="63.623046875" xlink:href="#BitstreamVeraSans-Roman-2e"/>
       <use x="95.41015625" xlink:href="#BitstreamVeraSans-Roman-30"/>
      </g>
     </g>
    </g>
    <g id="ytick_2">
     <g id="line2d_30">
      <g>
       <use style="stroke:#000000;stroke-width:0.5;" x="52.299375" xlink:href="#md7965d1ba0" y="445.4496875"/>
      </g>
     </g>
     <g id="line2d_31">
      <g>
       <use style="stroke:#000000;stroke-width:0.5;" x="338.638125" xlink:href="#md9a1c1a7cd" y="445.4496875"/>
      </g>
     </g>
     <g id="text_12">
      <!-- 0.2 -->
      <g transform="translate(31.20875 448.7609375)scale(0.12 -0.12)">
       <use xlink:href="#BitstreamVeraSans-Roman-30"/>
       <use x="63.623046875" xlink:href="#BitstreamVeraSans-Roman-2e"/>
       <use x="95.41015625" xlink:href="#BitstreamVeraSans-Roman-32"/>
      </g>
     </g>
    </g>
    <g id="ytick_3">
     <g id="line2d_32">
      <g>
       <use style="stroke:#000000;stroke-width:0.5;" x="52.299375" xlink:href="#md7965d1ba0" y="360.113125"/>
      </g>
     </g>
     <g id="line2d_33">
      <g>
       <use style="stroke:#000000;stroke-width:0.5;" x="338.638125" xlink:href="#md9a1c1a7cd" y="360.113125"/>
      </g>
     </g>
     <g id="text_13">
      <!-- 0.4 -->
      <defs>
       <path d="
M37.7969 64.3125
L12.8906 25.3906
L37.7969 25.3906
z

M35.2031 72.9062
L47.6094 72.9062
L47.6094 25.3906
L58.0156 25.3906
L58.0156 17.1875
L47.6094 17.1875
L47.6094 0
L37.7969 0
L37.7969 17.1875
L4.89062 17.1875
L4.89062 26.7031
z
" id="BitstreamVeraSans-Roman-34"/>
      </defs>
      <g transform="translate(30.68 363.424375)scale(0.12 -0.12)">
       <use xlink:href="#BitstreamVeraSans-Roman-30"/>
       <use x="63.623046875" xlink:href="#BitstreamVeraSans-Roman-2e"/>
       <use x="95.41015625" xlink:href="#BitstreamVeraSans-Roman-34"/>
      </g>
     </g>
    </g>
    <g id="ytick_4">
     <g id="line2d_34">
      <g>
       <use style="stroke:#000000;stroke-width:0.5;" x="52.299375" xlink:href="#md7965d1ba0" y="274.7765625"/>
      </g>
     </g>
     <g id="line2d_35">
      <g>
       <use style="stroke:#000000;stroke-width:0.5;" x="338.638125" xlink:href="#md9a1c1a7cd" y="274.7765625"/>
      </g>
     </g>
     <g id="text_14">
      <!-- 0.6 -->
      <g transform="translate(30.7625 278.0878125)scale(0.12 -0.12)">
       <use xlink:href="#BitstreamVeraSans-Roman-30"/>
       <use x="63.623046875" xlink:href="#BitstreamVeraSans-Roman-2e"/>
       <use x="95.41015625" xlink:href="#BitstreamVeraSans-Roman-36"/>
      </g>
     </g>
    </g>
    <g id="ytick_5">
     <g id="line2d_36">
      <g>
       <use style="stroke:#000000;stroke-width:0.5;" x="52.299375" xlink:href="#md7965d1ba0" y="189.44"/>
      </g>
     </g>
     <g id="line2d_37">
      <g>
       <use style="stroke:#000000;stroke-width:0.5;" x="338.638125" xlink:href="#md9a1c1a7cd" y="189.44"/>
      </g>
     </g>
     <g id="text_15">
      <!-- 0.8 -->
      <g transform="translate(30.828125 192.75125)scale(0.12 -0.12)">
       <use xlink:href="#BitstreamVeraSans-Roman-30"/>
       <use x="63.623046875" xlink:href="#BitstreamVeraSans-Roman-2e"/>
       <use x="95.41015625" xlink:href="#BitstreamVeraSans-Roman-38"/>
      </g>
     </g>
    </g>
    <g id="ytick_6">
     <g id="line2d_38">
      <g>
       <use style="stroke:#000000;stroke-width:0.5;" x="52.299375" xlink:href="#md7965d1ba0" y="104.1034375"/>
      </g>
     </g>
     <g id="line2d_39">
      <g>
       <use style="stroke:#000000;stroke-width:0.5;" x="338.638125" xlink:href="#md9a1c1a7cd" y="104.1034375"/>
      </g>
     </g>
     <g id="text_16">
      <!-- 1.0 -->
      <g transform="translate(31.330625 107.4146875)scale(0.12 -0.12)">
       <use xlink:href="#BitstreamVeraSans-Roman-31"/>
       <use x="63.623046875" xlink:href="#BitstreamVeraSans-Roman-2e"/>
       <use x="95.41015625" xlink:href="#BitstreamVeraSans-Roman-30"/>
      </g>
     </g>
    </g>
    <g id="ytick_7">
     <g id="text_17">
      <!-- 1.2 -->
      <g transform="translate(31.735625 22.078125)scale(0.12 -0.12)">
       <use xlink:href="#BitstreamVeraSans-Roman-31"/>
       <use x="63.623046875" xlink:href="#BitstreamVeraSans-Roman-2e"/>
       <use x="95.41015625" xlink:href="#BitstreamVeraSans-Roman-32"/>
      </g>
     </g>
    </g>
    <g id="text_18">
     <!-- Isotropic energie $\bar E$ -->
     <defs>
      <path d="
M6.89062 55.5156
L6.89062 58.9844
L43.0156 58.9844
L43.0156 55.5156
z
" id="Cmr10-b9"/>
      <path d="
M56.2031 29.5938
L56.2031 25.2031
L14.8906 25.2031
Q15.4844 15.9219 20.4844 11.0625
Q25.4844 6.20312 34.4219 6.20312
Q39.5938 6.20312 44.4531 7.46875
Q49.3125 8.73438 54.1094 11.2812
L54.1094 2.78125
Q49.2656 0.734375 44.1875 -0.34375
Q39.1094 -1.42188 33.8906 -1.42188
Q20.7969 -1.42188 13.1562 6.1875
Q5.51562 13.8125 5.51562 26.8125
Q5.51562 40.2344 12.7656 48.1094
Q20.0156 56 32.3281 56
Q43.3594 56 49.7812 48.8906
Q56.2031 41.7969 56.2031 29.5938
M47.2188 32.2344
Q47.125 39.5938 43.0938 43.9844
Q39.0625 48.3906 32.4219 48.3906
Q24.9062 48.3906 20.3906 44.1406
Q15.875 39.8906 15.1875 32.1719
z
" id="BitstreamVeraSans-Roman-65"/>
      <path d="
M4.6875 0
Q3.71875 0 3.71875 1.3125
Q3.76562 1.5625 3.90625 2.17188
Q4.04688 2.78125 4.3125 3.14062
Q4.59375 3.51562 4.98438 3.51562
Q11.0781 3.51562 13.4844 4.20312
Q14.7969 4.64062 15.375 6.89062
L29.1094 61.8125
Q29.2969 62.7969 29.2969 63.1875
Q29.2969 64.2656 28.0781 64.4062
Q26.2188 64.7969 20.9062 64.7969
Q19.9219 64.7969 19.9219 66.1094
Q19.9688 66.3594 20.1094 66.9688
Q20.2656 67.5781 20.5312 67.9375
Q20.7969 68.3125 21.1875 68.3125
L75.3906 68.3125
Q76.4219 68.3125 76.4219 67
L74.0312 46.2969
Q74.0312 46.0469 73.6562 45.7188
Q73.2969 45.4062 73 45.4062
L72.125 45.4062
Q71.0938 45.4062 71.0938 46.6875
Q71.6875 51.5625 71.6875 53.9062
Q71.6875 57.9062 70.3125 60.125
Q68.9531 62.3594 66.6719 63.3281
Q64.4062 64.3125 61.6406 64.5469
Q58.8906 64.7969 54.3906 64.7969
L43.0156 64.7969
Q40.2812 64.7969 39.4062 64.3281
Q38.5312 63.875 37.7969 61.375
L31.7812 37.2031
L39.5938 37.2031
Q44.6719 37.2031 47.2656 37.9062
Q49.8594 38.625 51.3594 40.8594
Q52.875 43.1094 54.1094 48
Q54.2031 48.3438 54.4688 48.6094
Q54.7344 48.875 55.0781 48.875
L56 48.875
Q56.9844 48.875 56.9844 47.6094
L50.7812 22.9062
Q50.5938 22.0156 49.8125 22.0156
L48.875 22.0156
Q47.9062 22.0156 47.9062 23.2969
Q48.875 27.2969 48.875 29.2031
Q48.875 32.125 46.2344 32.9062
Q43.6094 33.6875 39.2031 33.6875
L30.9062 33.6875
L24.125 6.5
Q23.6875 5.28125 23.6875 4.29688
Q23.6875 3.51562 27.0938 3.51562
L39.2031 3.51562
Q46.4375 3.51562 50.9219 4.64062
Q55.4219 5.76562 58.375 8.21875
Q61.3281 10.6875 63.4688 14.5
Q65.625 18.3125 68.7031 25.5938
Q68.8906 26.2188 69.5781 26.2188
L70.5156 26.2188
Q70.9062 26.2188 71.1875 25.875
Q71.4844 25.5312 71.4844 25.0938
Q71.4844 24.9062 71.3906 24.7031
L61.0781 0.59375
Q60.8906 0 60.2969 0
z
" id="Cmmi10-45"/>
     </defs>
     <g transform="translate(23.16 331.7165625)rotate(-90.0)scale(0.12 -0.12)">
      <use transform="translate(0.0 0.71875)" xlink:href="#BitstreamVeraSans-Roman-49"/>
      <use transform="translate(29.4921875 0.71875)" xlink:href="#BitstreamVeraSans-Roman-73"/>
      <use transform="translate(81.591796875 0.71875)" xlink:href="#BitstreamVeraSans-Roman-6f"/>
      <use transform="translate(142.7734375 0.71875)" xlink:href="#BitstreamVeraSans-Roman-74"/>
      <use transform="translate(181.982421875 0.71875)" xlink:href="#BitstreamVeraSans-Roman-72"/>
      <use transform="translate(223.095703125 0.71875)" xlink:href="#BitstreamVeraSans-Roman-6f"/>
      <use transform="translate(284.27734375 0.71875)" xlink:href="#BitstreamVeraSans-Roman-70"/>
      <use transform="translate(347.75390625 0.71875)" xlink:href="#BitstreamVeraSans-Roman-69"/>
      <use transform="translate(375.537109375 0.71875)" xlink:href="#BitstreamVeraSans-Roman-63"/>
      <use transform="translate(430.517578125 0.71875)" xlink:href="#BitstreamVeraSans-Roman-20"/>
      <use transform="translate(462.3046875 0.71875)" xlink:href="#BitstreamVeraSans-Roman-65"/>
      <use transform="translate(523.828125 0.71875)" xlink:href="#BitstreamVeraSans-Roman-6e"/>
      <use transform="translate(587.20703125 0.71875)" xlink:href="#BitstreamVeraSans-Roman-65"/>
      <use transform="translate(648.73046875 0.71875)" xlink:href="#BitstreamVeraSans-Roman-72"/>
      <use transform="translate(689.84375 0.71875)" xlink:href="#BitstreamVeraSans-Roman-67"/>
      <use transform="translate(753.3203125 0.71875)" xlink:href="#BitstreamVeraSans-Roman-69"/>
      <use transform="translate(781.103515625 0.71875)" xlink:href="#BitstreamVeraSans-Roman-65"/>
      <use transform="translate(842.626953125 0.71875)" xlink:href="#BitstreamVeraSans-Roman-20"/>
      <use transform="translate(885.5234375 26.015625)" xlink:href="#Cmr10-b9"/>
      <use transform="translate(874.4140625 0.71875)" xlink:href="#Cmmi10-45"/>
     </g>
    </g>
   </g>
   <g id="legend_1">
    <g id="patch_7">
     <path d="
M57.2994 144.192
L233.437 144.192
L233.437 23.7669
L57.2994 23.7669
z
" style="fill:#ffffff;stroke:#000000;stroke-linejoin:miter;"/>
    </g>
    <g id="line2d_40">
     <path d="
M64.2994 31.8653
L78.2994 31.8653" style="fill:none;stroke:#000000;stroke-linecap:square;"/>
    </g>
    <g id="line2d_41"/>
    <g id="text_19">
     <!-- Analytical total -->
     <defs>
      <path d="
M34.1875 63.1875
L20.7969 26.9062
L47.6094 26.9062
z

M28.6094 72.9062
L39.7969 72.9062
L67.5781 0
L57.3281 0
L50.6875 18.7031
L17.8281 18.7031
L11.1875 0
L0.78125 0
z
" id="BitstreamVeraSans-Roman-41"/>
      <path d="
M32.1719 -5.07812
Q28.375 -14.8438 24.75 -17.8125
Q21.1406 -20.7969 15.0938 -20.7969
L7.90625 -20.7969
L7.90625 -13.2812
L13.1875 -13.2812
Q16.8906 -13.2812 18.9375 -11.5156
Q21 -9.76562 23.4844 -3.21875
L25.0938 0.875
L2.98438 54.6875
L12.5 54.6875
L29.5938 11.9219
L46.6875 54.6875
L56.2031 54.6875
z
" id="BitstreamVeraSans-Roman-79"/>
     </defs>
     <g transform="translate(89.299375 35.3653125)scale(0.1 -0.1)">
      <use xlink:href="#BitstreamVeraSans-Roman-41"/>
      <use x="68.408203125" xlink:href="#BitstreamVeraSans-Roman-6e"/>
      <use x="131.787109375" xlink:href="#BitstreamVeraSans-Roman-61"/>
      <use x="193.06640625" xlink:href="#BitstreamVeraSans-Roman-6c"/>
      <use x="220.849609375" xlink:href="#BitstreamVeraSans-Roman-79"/>
      <use x="280.029296875" xlink:href="#BitstreamVeraSans-Roman-74"/>
      <use x="319.23828125" xlink:href="#BitstreamVeraSans-Roman-69"/>
      <use x="347.021484375" xlink:href="#BitstreamVeraSans-Roman-63"/>
      <use x="402.001953125" xlink:href="#BitstreamVeraSans-Roman-61"/>
      <use x="463.28125" xlink:href="#BitstreamVeraSans-Roman-6c"/>
      <use x="491.064453125" xlink:href="#BitstreamVeraSans-Roman-20"/>
      <use x="522.8515625" xlink:href="#BitstreamVeraSans-Roman-74"/>
      <use x="562.060546875" xlink:href="#BitstreamVeraSans-Roman-6f"/>
      <use x="623.2421875" xlink:href="#BitstreamVeraSans-Roman-74"/>
      <use x="662.451171875" xlink:href="#BitstreamVeraSans-Roman-61"/>
      <use x="723.73046875" xlink:href="#BitstreamVeraSans-Roman-6c"/>
     </g>
    </g>
    <g id="line2d_42">
     <path d="
M64.2994 46.5434
L78.2994 46.5434" style="fill:none;stroke:#0000ff;stroke-linecap:square;"/>
    </g>
    <g id="line2d_43"/>
    <g id="text_20">
     <!-- Analytical volume elasticity -->
     <defs>
      <path d="
M8.5 21.5781
L8.5 54.6875
L17.4844 54.6875
L17.4844 21.9219
Q17.4844 14.1562 20.5 10.2656
Q23.5312 6.39062 29.5938 6.39062
Q36.8594 6.39062 41.0781 11.0312
Q45.3125 15.6719 45.3125 23.6875
L45.3125 54.6875
L54.2969 54.6875
L54.2969 0
L45.3125 0
L45.3125 8.40625
Q42.0469 3.42188 37.7188 1
Q33.4062 -1.42188 27.6875 -1.42188
Q18.2656 -1.42188 13.375 4.4375
Q8.5 10.2969 8.5 21.5781" id="BitstreamVeraSans-Roman-75"/>
      <path d="
M52 44.1875
Q55.375 50.25 60.0625 53.125
Q64.75 56 71.0938 56
Q79.6406 56 84.2812 50.0156
Q88.9219 44.0469 88.9219 33.0156
L88.9219 0
L79.8906 0
L79.8906 32.7188
Q79.8906 40.5781 77.0938 44.375
Q74.3125 48.1875 68.6094 48.1875
Q61.625 48.1875 57.5625 43.5469
Q53.5156 38.9219 53.5156 30.9062
L53.5156 0
L44.4844 0
L44.4844 32.7188
Q44.4844 40.625 41.7031 44.4062
Q38.9219 48.1875 33.1094 48.1875
Q26.2188 48.1875 22.1562 43.5312
Q18.1094 38.875 18.1094 30.9062
L18.1094 0
L9.07812 0
L9.07812 54.6875
L18.1094 54.6875
L18.1094 46.1875
Q21.1875 51.2188 25.4844 53.6094
Q29.7812 56 35.6875 56
Q41.6562 56 45.8281 52.9688
Q50 49.9531 52 44.1875" id="BitstreamVeraSans-Roman-6d"/>
      <path d="
M2.98438 54.6875
L12.5 54.6875
L29.5938 8.79688
L46.6875 54.6875
L56.2031 54.6875
L35.6875 0
L23.4844 0
z
" id="BitstreamVeraSans-Roman-76"/>
     </defs>
     <g transform="translate(89.299375 50.0434375)scale(0.1 -0.1)">
      <use xlink:href="#BitstreamVeraSans-Roman-41"/>
      <use x="68.408203125" xlink:href="#BitstreamVeraSans-Roman-6e"/>
      <use x="131.787109375" xlink:href="#BitstreamVeraSans-Roman-61"/>
      <use x="193.06640625" xlink:href="#BitstreamVeraSans-Roman-6c"/>
      <use x="220.849609375" xlink:href="#BitstreamVeraSans-Roman-79"/>
      <use x="280.029296875" xlink:href="#BitstreamVeraSans-Roman-74"/>
      <use x="319.23828125" xlink:href="#BitstreamVeraSans-Roman-69"/>
      <use x="347.021484375" xlink:href="#BitstreamVeraSans-Roman-63"/>
      <use x="402.001953125" xlink:href="#BitstreamVeraSans-Roman-61"/>
      <use x="463.28125" xlink:href="#BitstreamVeraSans-Roman-6c"/>
      <use x="491.064453125" xlink:href="#BitstreamVeraSans-Roman-20"/>
      <use x="522.8515625" xlink:href="#BitstreamVeraSans-Roman-76"/>
      <use x="582.03125" xlink:href="#BitstreamVeraSans-Roman-6f"/>
      <use x="643.212890625" xlink:href="#BitstreamVeraSans-Roman-6c"/>
      <use x="670.99609375" xlink:href="#BitstreamVeraSans-Roman-75"/>
      <use x="734.375" xlink:href="#BitstreamVeraSans-Roman-6d"/>
      <use x="831.787109375" xlink:href="#BitstreamVeraSans-Roman-65"/>
      <use x="893.310546875" xlink:href="#BitstreamVeraSans-Roman-20"/>
      <use x="925.09765625" xlink:href="#BitstreamVeraSans-Roman-65"/>
      <use x="986.62109375" xlink:href="#BitstreamVeraSans-Roman-6c"/>
      <use x="1014.404296875" xlink:href="#BitstreamVeraSans-Roman-61"/>
      <use x="1075.68359375" xlink:href="#BitstreamVeraSans-Roman-73"/>
      <use x="1127.783203125" xlink:href="#BitstreamVeraSans-Roman-74"/>
      <use x="1166.9921875" xlink:href="#BitstreamVeraSans-Roman-69"/>
      <use x="1194.775390625" xlink:href="#BitstreamVeraSans-Roman-63"/>
      <use x="1249.755859375" xlink:href="#BitstreamVeraSans-Roman-69"/>
      <use x="1277.5390625" xlink:href="#BitstreamVeraSans-Roman-74"/>
      <use x="1316.748046875" xlink:href="#BitstreamVeraSans-Roman-79"/>
     </g>
    </g>
    <g id="line2d_44">
     <path d="
M64.2994 61.2216
L78.2994 61.2216" style="fill:none;stroke:#ffa500;stroke-linecap:square;"/>
    </g>
    <g id="line2d_45"/>
    <g id="text_21">
     <!-- Analytical contractility -->
     <g transform="translate(89.299375 64.7215625)scale(0.1 -0.1)">
      <use xlink:href="#BitstreamVeraSans-Roman-41"/>
      <use x="68.408203125" xlink:href="#BitstreamVeraSans-Roman-6e"/>
      <use x="131.787109375" xlink:href="#BitstreamVeraSans-Roman-61"/>
      <use x="193.06640625" xlink:href="#BitstreamVeraSans-Roman-6c"/>
      <use x="220.849609375" xlink:href="#BitstreamVeraSans-Roman-79"/>
      <use x="280.029296875" xlink:href="#BitstreamVeraSans-Roman-74"/>
      <use x="319.23828125" xlink:href="#BitstreamVeraSans-Roman-69"/>
      <use x="347.021484375" xlink:href="#BitstreamVeraSans-Roman-63"/>
      <use x="402.001953125" xlink:href="#BitstreamVeraSans-Roman-61"/>
      <use x="463.28125" xlink:href="#BitstreamVeraSans-Roman-6c"/>
      <use x="491.064453125" xlink:href="#BitstreamVeraSans-Roman-20"/>
      <use x="522.8515625" xlink:href="#BitstreamVeraSans-Roman-63"/>
      <use x="577.83203125" xlink:href="#BitstreamVeraSans-Roman-6f"/>
      <use x="639.013671875" xlink:href="#BitstreamVeraSans-Roman-6e"/>
      <use x="702.392578125" xlink:href="#BitstreamVeraSans-Roman-74"/>
      <use x="741.6015625" xlink:href="#BitstreamVeraSans-Roman-72"/>
      <use x="782.71484375" xlink:href="#BitstreamVeraSans-Roman-61"/>
      <use x="843.994140625" xlink:href="#BitstreamVeraSans-Roman-63"/>
      <use x="898.974609375" xlink:href="#BitstreamVeraSans-Roman-74"/>
      <use x="938.18359375" xlink:href="#BitstreamVeraSans-Roman-69"/>
      <use x="965.966796875" xlink:href="#BitstreamVeraSans-Roman-6c"/>
      <use x="993.75" xlink:href="#BitstreamVeraSans-Roman-69"/>
      <use x="1021.533203125" xlink:href="#BitstreamVeraSans-Roman-74"/>
      <use x="1060.7421875" xlink:href="#BitstreamVeraSans-Roman-79"/>
     </g>
    </g>
    <g id="line2d_46">
     <path d="
M64.2994 75.8997
L78.2994 75.8997" style="fill:none;stroke:#008000;stroke-linecap:square;"/>
    </g>
    <g id="line2d_47"/>
    <g id="text_22">
     <!-- Analytical line tension -->
     <g transform="translate(89.299375 79.3996875)scale(0.1 -0.1)">
      <use xlink:href="#BitstreamVeraSans-Roman-41"/>
      <use x="68.408203125" xlink:href="#BitstreamVeraSans-Roman-6e"/>
      <use x="131.787109375" xlink:href="#BitstreamVeraSans-Roman-61"/>
      <use x="193.06640625" xlink:href="#BitstreamVeraSans-Roman-6c"/>
      <use x="220.849609375" xlink:href="#BitstreamVeraSans-Roman-79"/>
      <use x="280.029296875" xlink:href="#BitstreamVeraSans-Roman-74"/>
      <use x="319.23828125" xlink:href="#BitstreamVeraSans-Roman-69"/>
      <use x="347.021484375" xlink:href="#BitstreamVeraSans-Roman-63"/>
      <use x="402.001953125" xlink:href="#BitstreamVeraSans-Roman-61"/>
      <use x="463.28125" xlink:href="#BitstreamVeraSans-Roman-6c"/>
      <use x="491.064453125" xlink:href="#BitstreamVeraSans-Roman-20"/>
      <use x="522.8515625" xlink:href="#BitstreamVeraSans-Roman-6c"/>
      <use x="550.634765625" xlink:href="#BitstreamVeraSans-Roman-69"/>
      <use x="578.41796875" xlink:href="#BitstreamVeraSans-Roman-6e"/>
      <use x="641.796875" xlink:href="#BitstreamVeraSans-Roman-65"/>
      <use x="703.3203125" xlink:href="#BitstreamVeraSans-Roman-20"/>
      <use x="735.107421875" xlink:href="#BitstreamVeraSans-Roman-74"/>
      <use x="774.31640625" xlink:href="#BitstreamVeraSans-Roman-65"/>
      <use x="835.83984375" xlink:href="#BitstreamVeraSans-Roman-6e"/>
      <use x="899.21875" xlink:href="#BitstreamVeraSans-Roman-73"/>
      <use x="951.318359375" xlink:href="#BitstreamVeraSans-Roman-69"/>
      <use x="979.1015625" xlink:href="#BitstreamVeraSans-Roman-6f"/>
      <use x="1040.283203125" xlink:href="#BitstreamVeraSans-Roman-6e"/>
     </g>
    </g>
    <g id="line2d_48">
     <path d="
M64.2994 90.5778
L78.2994 90.5778" style="fill:none;opacity:0.8;stroke:#0000ff;stroke-dasharray:1.000000,3.000000;stroke-dashoffset:0.0;stroke-width:2;"/>
    </g>
    <g id="line2d_49">
     <g>
      <use style="fill:#0000ff;opacity:0.8;stroke:#000000;stroke-width:0.5;" x="64.299375" xlink:href="#mef69609f5b" y="90.5778125"/>
      <use style="fill:#0000ff;opacity:0.8;stroke:#000000;stroke-width:0.5;" x="78.299375" xlink:href="#mef69609f5b" y="90.5778125"/>
     </g>
    </g>
    <g id="text_23">
     <!-- Computed volume elasticity -->
     <defs>
      <path d="
M45.4062 46.3906
L45.4062 75.9844
L54.3906 75.9844
L54.3906 0
L45.4062 0
L45.4062 8.20312
Q42.5781 3.32812 38.25 0.953125
Q33.9375 -1.42188 27.875 -1.42188
Q17.9688 -1.42188 11.7344 6.48438
Q5.51562 14.4062 5.51562 27.2969
Q5.51562 40.1875 11.7344 48.0938
Q17.9688 56 27.875 56
Q33.9375 56 38.25 53.625
Q42.5781 51.2656 45.4062 46.3906
M14.7969 27.2969
Q14.7969 17.3906 18.875 11.75
Q22.9531 6.10938 30.0781 6.10938
Q37.2031 6.10938 41.2969 11.75
Q45.4062 17.3906 45.4062 27.2969
Q45.4062 37.2031 41.2969 42.8438
Q37.2031 48.4844 30.0781 48.4844
Q22.9531 48.4844 18.875 42.8438
Q14.7969 37.2031 14.7969 27.2969" id="BitstreamVeraSans-Roman-64"/>
      <path d="
M64.4062 67.2812
L64.4062 56.8906
Q59.4219 61.5312 53.7812 63.8125
Q48.1406 66.1094 41.7969 66.1094
Q29.2969 66.1094 22.6562 58.4688
Q16.0156 50.8281 16.0156 36.375
Q16.0156 21.9688 22.6562 14.3281
Q29.2969 6.6875 41.7969 6.6875
Q48.1406 6.6875 53.7812 8.98438
Q59.4219 11.2812 64.4062 15.9219
L64.4062 5.60938
Q59.2344 2.09375 53.4375 0.328125
Q47.6562 -1.42188 41.2188 -1.42188
Q24.6562 -1.42188 15.125 8.70312
Q5.60938 18.8438 5.60938 36.375
Q5.60938 53.9531 15.125 64.0781
Q24.6562 74.2188 41.2188 74.2188
Q47.75 74.2188 53.5312 72.4844
Q59.3281 70.75 64.4062 67.2812" id="BitstreamVeraSans-Roman-43"/>
     </defs>
     <g transform="translate(89.299375 94.0778125)scale(0.1 -0.1)">
      <use xlink:href="#BitstreamVeraSans-Roman-43"/>
      <use x="69.82421875" xlink:href="#BitstreamVeraSans-Roman-6f"/>
      <use x="131.005859375" xlink:href="#BitstreamVeraSans-Roman-6d"/>
      <use x="228.41796875" xlink:href="#BitstreamVeraSans-Roman-70"/>
      <use x="291.89453125" xlink:href="#BitstreamVeraSans-Roman-75"/>
      <use x="355.2734375" xlink:href="#BitstreamVeraSans-Roman-74"/>
      <use x="394.482421875" xlink:href="#BitstreamVeraSans-Roman-65"/>
      <use x="456.005859375" xlink:href="#BitstreamVeraSans-Roman-64"/>
      <use x="519.482421875" xlink:href="#BitstreamVeraSans-Roman-20"/>
      <use x="551.26953125" xlink:href="#BitstreamVeraSans-Roman-76"/>
      <use x="610.44921875" xlink:href="#BitstreamVeraSans-Roman-6f"/>
      <use x="671.630859375" xlink:href="#BitstreamVeraSans-Roman-6c"/>
      <use x="699.4140625" xlink:href="#BitstreamVeraSans-Roman-75"/>
      <use x="762.79296875" xlink:href="#BitstreamVeraSans-Roman-6d"/>
      <use x="860.205078125" xlink:href="#BitstreamVeraSans-Roman-65"/>
      <use x="921.728515625" xlink:href="#BitstreamVeraSans-Roman-20"/>
      <use x="953.515625" xlink:href="#BitstreamVeraSans-Roman-65"/>
      <use x="1015.0390625" xlink:href="#BitstreamVeraSans-Roman-6c"/>
      <use x="1042.822265625" xlink:href="#BitstreamVeraSans-Roman-61"/>
      <use x="1104.1015625" xlink:href="#BitstreamVeraSans-Roman-73"/>
      <use x="1156.201171875" xlink:href="#BitstreamVeraSans-Roman-74"/>
      <use x="1195.41015625" xlink:href="#BitstreamVeraSans-Roman-69"/>
      <use x="1223.193359375" xlink:href="#BitstreamVeraSans-Roman-63"/>
      <use x="1278.173828125" xlink:href="#BitstreamVeraSans-Roman-69"/>
      <use x="1305.95703125" xlink:href="#BitstreamVeraSans-Roman-74"/>
      <use x="1345.166015625" xlink:href="#BitstreamVeraSans-Roman-79"/>
     </g>
    </g>
    <g id="line2d_50">
     <path d="
M64.2994 105.256
L78.2994 105.256" style="fill:none;opacity:0.8;stroke:#008000;stroke-dasharray:1.000000,3.000000;stroke-dashoffset:0.0;stroke-width:2;"/>
    </g>
    <g id="line2d_51">
     <g>
      <use style="fill:#008000;opacity:0.8;stroke:#000000;stroke-width:0.5;" x="64.299375" xlink:href="#m76b920a409" y="105.2559375"/>
      <use style="fill:#008000;opacity:0.8;stroke:#000000;stroke-width:0.5;" x="78.299375" xlink:href="#m76b920a409" y="105.2559375"/>
     </g>
    </g>
    <g id="text_24">
     <!-- Computed line tension -->
     <g transform="translate(89.299375 108.7559375)scale(0.1 -0.1)">
      <use xlink:href="#BitstreamVeraSans-Roman-43"/>
      <use x="69.82421875" xlink:href="#BitstreamVeraSans-Roman-6f"/>
      <use x="131.005859375" xlink:href="#BitstreamVeraSans-Roman-6d"/>
      <use x="228.41796875" xlink:href="#BitstreamVeraSans-Roman-70"/>
      <use x="291.89453125" xlink:href="#BitstreamVeraSans-Roman-75"/>
      <use x="355.2734375" xlink:href="#BitstreamVeraSans-Roman-74"/>
      <use x="394.482421875" xlink:href="#BitstreamVeraSans-Roman-65"/>
      <use x="456.005859375" xlink:href="#BitstreamVeraSans-Roman-64"/>
      <use x="519.482421875" xlink:href="#BitstreamVeraSans-Roman-20"/>
      <use x="551.26953125" xlink:href="#BitstreamVeraSans-Roman-6c"/>
      <use x="579.052734375" xlink:href="#BitstreamVeraSans-Roman-69"/>
      <use x="606.8359375" xlink:href="#BitstreamVeraSans-Roman-6e"/>
      <use x="670.21484375" xlink:href="#BitstreamVeraSans-Roman-65"/>
      <use x="731.73828125" xlink:href="#BitstreamVeraSans-Roman-20"/>
      <use x="763.525390625" xlink:href="#BitstreamVeraSans-Roman-74"/>
      <use x="802.734375" xlink:href="#BitstreamVeraSans-Roman-65"/>
      <use x="864.2578125" xlink:href="#BitstreamVeraSans-Roman-6e"/>
      <use x="927.63671875" xlink:href="#BitstreamVeraSans-Roman-73"/>
      <use x="979.736328125" xlink:href="#BitstreamVeraSans-Roman-69"/>
      <use x="1007.51953125" xlink:href="#BitstreamVeraSans-Roman-6f"/>
      <use x="1068.701171875" xlink:href="#BitstreamVeraSans-Roman-6e"/>
     </g>
    </g>
    <g id="line2d_52">
     <path d="
M64.2994 119.934
L78.2994 119.934" style="fill:none;stroke:#ffa500;stroke-dasharray:1.000000,3.000000;stroke-dashoffset:0.0;"/>
    </g>
    <g id="line2d_53">
     <g>
      <use style="fill:#ffa500;stroke:#000000;stroke-width:0.5;" x="64.299375" xlink:href="#m7826282e09" y="119.9340625"/>
      <use style="fill:#ffa500;stroke:#000000;stroke-width:0.5;" x="78.299375" xlink:href="#m7826282e09" y="119.9340625"/>
     </g>
    </g>
    <g id="text_25">
     <!-- Computed contractility -->
     <g transform="translate(89.299375 123.4340625)scale(0.1 -0.1)">
      <use xlink:href="#BitstreamVeraSans-Roman-43"/>
      <use x="69.82421875" xlink:href="#BitstreamVeraSans-Roman-6f"/>
      <use x="131.005859375" xlink:href="#BitstreamVeraSans-Roman-6d"/>
      <use x="228.41796875" xlink:href="#BitstreamVeraSans-Roman-70"/>
      <use x="291.89453125" xlink:href="#BitstreamVeraSans-Roman-75"/>
      <use x="355.2734375" xlink:href="#BitstreamVeraSans-Roman-74"/>
      <use x="394.482421875" xlink:href="#BitstreamVeraSans-Roman-65"/>
      <use x="456.005859375" xlink:href="#BitstreamVeraSans-Roman-64"/>
      <use x="519.482421875" xlink:href="#BitstreamVeraSans-Roman-20"/>
      <use x="551.26953125" xlink:href="#BitstreamVeraSans-Roman-63"/>
      <use x="606.25" xlink:href="#BitstreamVeraSans-Roman-6f"/>
      <use x="667.431640625" xlink:href="#BitstreamVeraSans-Roman-6e"/>
      <use x="730.810546875" xlink:href="#BitstreamVeraSans-Roman-74"/>
      <use x="770.01953125" xlink:href="#BitstreamVeraSans-Roman-72"/>
      <use x="811.1328125" xlink:href="#BitstreamVeraSans-Roman-61"/>
      <use x="872.412109375" xlink:href="#BitstreamVeraSans-Roman-63"/>
      <use x="927.392578125" xlink:href="#BitstreamVeraSans-Roman-74"/>
      <use x="966.6015625" xlink:href="#BitstreamVeraSans-Roman-69"/>
      <use x="994.384765625" xlink:href="#BitstreamVeraSans-Roman-6c"/>
      <use x="1022.16796875" xlink:href="#BitstreamVeraSans-Roman-69"/>
      <use x="1049.951171875" xlink:href="#BitstreamVeraSans-Roman-74"/>
      <use x="1089.16015625" xlink:href="#BitstreamVeraSans-Roman-79"/>
     </g>
    </g>
    <g id="line2d_54">
     <path d="
M64.2994 134.612
L78.2994 134.612" style="fill:none;opacity:0.8;stroke:#000000;stroke-dasharray:1.000000,3.000000;stroke-dashoffset:0.0;stroke-width:2;"/>
    </g>
    <g id="line2d_55">
     <g>
      <use style="opacity:0.8;stroke:#000000;stroke-width:0.5;" x="64.299375" xlink:href="#m6ad747730d" y="134.6121875"/>
      <use style="opacity:0.8;stroke:#000000;stroke-width:0.5;" x="78.299375" xlink:href="#m6ad747730d" y="134.6121875"/>
     </g>
    </g>
    <g id="text_26">
     <!-- Computed total -->
     <g transform="translate(89.299375 138.1121875)scale(0.1 -0.1)">
      <use xlink:href="#BitstreamVeraSans-Roman-43"/>
      <use x="69.82421875" xlink:href="#BitstreamVeraSans-Roman-6f"/>
      <use x="131.005859375" xlink:href="#BitstreamVeraSans-Roman-6d"/>
      <use x="228.41796875" xlink:href="#BitstreamVeraSans-Roman-70"/>
      <use x="291.89453125" xlink:href="#BitstreamVeraSans-Roman-75"/>
      <use x="355.2734375" xlink:href="#BitstreamVeraSans-Roman-74"/>
      <use x="394.482421875" xlink:href="#BitstreamVeraSans-Roman-65"/>
      <use x="456.005859375" xlink:href="#BitstreamVeraSans-Roman-64"/>
      <use x="519.482421875" xlink:href="#BitstreamVeraSans-Roman-20"/>
      <use x="551.26953125" xlink:href="#BitstreamVeraSans-Roman-74"/>
      <use x="590.478515625" xlink:href="#BitstreamVeraSans-Roman-6f"/>
      <use x="651.66015625" xlink:href="#BitstreamVeraSans-Roman-74"/>
      <use x="690.869140625" xlink:href="#BitstreamVeraSans-Roman-61"/>
      <use x="752.1484375" xlink:href="#BitstreamVeraSans-Roman-6c"/>
     </g>
    </g>
   </g>
  </g>
 </g>
 <defs>
  <clipPath id="p65bd822ae2">
   <rect height="512.019375" width="286.33875" x="52.299375" y="18.766875"/>
  </clipPath>
 </defs>
</svg>
